<mxfile host="app.diagrams.net" modified="2023-02-05T13:50:18.870Z" agent="5.0 (X11; Linux x86_64) AppleWebKit/537.36 (KHTML, like Gecko) Chrome/109.0.0.0 Safari/537.36" etag="fEBhSa6bA9oCCvLT9RWu" version="20.8.16" type="github">
  <diagram id="C5RBs43oDa-KdzZeNtuy" name="Page-1">
    <mxGraphModel dx="1127" dy="628" grid="1" gridSize="10" guides="1" tooltips="1" connect="1" arrows="1" fold="1" page="1" pageScale="1" pageWidth="827" pageHeight="1169" math="0" shadow="0">
      <root>
        <mxCell id="WIyWlLk6GJQsqaUBKTNV-0" />
        <mxCell id="WIyWlLk6GJQsqaUBKTNV-1" parent="WIyWlLk6GJQsqaUBKTNV-0" />
        <mxCell id="vepCg21nnmC4S3ZTDHTt-2" value="" style="edgeStyle=orthogonalEdgeStyle;rounded=0;sketch=0;orthogonalLoop=1;jettySize=auto;html=1;" edge="1" parent="WIyWlLk6GJQsqaUBKTNV-1" source="vepCg21nnmC4S3ZTDHTt-0" target="vepCg21nnmC4S3ZTDHTt-1">
          <mxGeometry relative="1" as="geometry" />
        </mxCell>
        <mxCell id="vepCg21nnmC4S3ZTDHTt-0" value="start" style="ellipse;whiteSpace=wrap;html=1;sketch=0;" vertex="1" parent="WIyWlLk6GJQsqaUBKTNV-1">
          <mxGeometry x="240" y="130" width="120" height="70" as="geometry" />
        </mxCell>
        <mxCell id="vepCg21nnmC4S3ZTDHTt-4" value="" style="edgeStyle=orthogonalEdgeStyle;rounded=0;sketch=0;orthogonalLoop=1;jettySize=auto;html=1;" edge="1" parent="WIyWlLk6GJQsqaUBKTNV-1" source="vepCg21nnmC4S3ZTDHTt-1" target="vepCg21nnmC4S3ZTDHTt-3">
          <mxGeometry relative="1" as="geometry" />
        </mxCell>
        <mxCell id="vepCg21nnmC4S3ZTDHTt-1" value="int ara[ ] = {1, 8, 7, 5, 3, 10, 6, 4, 2, 9};&lt;br&gt;int i = 0;" style="whiteSpace=wrap;html=1;glass=0;rounded=0;shadow=0;" vertex="1" parent="WIyWlLk6GJQsqaUBKTNV-1">
          <mxGeometry x="240" y="250" width="120" height="60" as="geometry" />
        </mxCell>
        <mxCell id="vepCg21nnmC4S3ZTDHTt-6" value="" style="edgeStyle=orthogonalEdgeStyle;rounded=0;sketch=0;orthogonalLoop=1;jettySize=auto;html=1;" edge="1" parent="WIyWlLk6GJQsqaUBKTNV-1" source="vepCg21nnmC4S3ZTDHTt-3" target="vepCg21nnmC4S3ZTDHTt-5">
          <mxGeometry relative="1" as="geometry" />
        </mxCell>
        <mxCell id="vepCg21nnmC4S3ZTDHTt-3" value="max = ara[0]" style="rounded=0;whiteSpace=wrap;html=1;glass=0;shadow=0;" vertex="1" parent="WIyWlLk6GJQsqaUBKTNV-1">
          <mxGeometry x="240" y="360" width="120" height="60" as="geometry" />
        </mxCell>
        <mxCell id="vepCg21nnmC4S3ZTDHTt-8" value="" style="edgeStyle=orthogonalEdgeStyle;rounded=0;sketch=0;orthogonalLoop=1;jettySize=auto;html=1;" edge="1" parent="WIyWlLk6GJQsqaUBKTNV-1" source="vepCg21nnmC4S3ZTDHTt-5" target="vepCg21nnmC4S3ZTDHTt-7">
          <mxGeometry relative="1" as="geometry" />
        </mxCell>
        <mxCell id="vepCg21nnmC4S3ZTDHTt-11" style="edgeStyle=orthogonalEdgeStyle;rounded=0;sketch=0;orthogonalLoop=1;jettySize=auto;html=1;exitX=0;exitY=0.5;exitDx=0;exitDy=0;entryX=0.5;entryY=0;entryDx=0;entryDy=0;" edge="1" parent="WIyWlLk6GJQsqaUBKTNV-1" source="vepCg21nnmC4S3ZTDHTt-5" target="vepCg21nnmC4S3ZTDHTt-15">
          <mxGeometry relative="1" as="geometry">
            <mxPoint x="170" y="500" as="targetPoint" />
          </mxGeometry>
        </mxCell>
        <mxCell id="vepCg21nnmC4S3ZTDHTt-5" value="i &amp;lt; 10" style="rhombus;whiteSpace=wrap;html=1;rounded=0;glass=0;shadow=0;" vertex="1" parent="WIyWlLk6GJQsqaUBKTNV-1">
          <mxGeometry x="250" y="460" width="100" height="80" as="geometry" />
        </mxCell>
        <mxCell id="vepCg21nnmC4S3ZTDHTt-12" style="edgeStyle=orthogonalEdgeStyle;rounded=0;sketch=0;orthogonalLoop=1;jettySize=auto;html=1;exitX=1;exitY=0.5;exitDx=0;exitDy=0;" edge="1" parent="WIyWlLk6GJQsqaUBKTNV-1" source="vepCg21nnmC4S3ZTDHTt-7">
          <mxGeometry relative="1" as="geometry">
            <mxPoint x="570" y="590" as="targetPoint" />
          </mxGeometry>
        </mxCell>
        <mxCell id="vepCg21nnmC4S3ZTDHTt-24" style="edgeStyle=orthogonalEdgeStyle;rounded=0;sketch=0;orthogonalLoop=1;jettySize=auto;html=1;exitX=0.5;exitY=1;exitDx=0;exitDy=0;entryX=0.5;entryY=0;entryDx=0;entryDy=0;" edge="1" parent="WIyWlLk6GJQsqaUBKTNV-1" source="vepCg21nnmC4S3ZTDHTt-7" target="vepCg21nnmC4S3ZTDHTt-28">
          <mxGeometry relative="1" as="geometry">
            <mxPoint x="430" y="680" as="targetPoint" />
          </mxGeometry>
        </mxCell>
        <mxCell id="vepCg21nnmC4S3ZTDHTt-7" value="ara[i] &amp;gt; max" style="rhombus;whiteSpace=wrap;html=1;rounded=0;glass=0;shadow=0;" vertex="1" parent="WIyWlLk6GJQsqaUBKTNV-1">
          <mxGeometry x="370" y="550" width="120" height="80" as="geometry" />
        </mxCell>
        <mxCell id="vepCg21nnmC4S3ZTDHTt-10" value="yes" style="text;html=1;align=center;verticalAlign=middle;resizable=0;points=[];autosize=1;strokeColor=none;fillColor=none;" vertex="1" parent="WIyWlLk6GJQsqaUBKTNV-1">
          <mxGeometry x="360" y="475" width="40" height="30" as="geometry" />
        </mxCell>
        <mxCell id="vepCg21nnmC4S3ZTDHTt-13" value="no" style="text;html=1;align=center;verticalAlign=middle;resizable=0;points=[];autosize=1;strokeColor=none;fillColor=none;" vertex="1" parent="WIyWlLk6GJQsqaUBKTNV-1">
          <mxGeometry x="210" y="470" width="40" height="30" as="geometry" />
        </mxCell>
        <mxCell id="vepCg21nnmC4S3ZTDHTt-15" value="end" style="ellipse;whiteSpace=wrap;html=1;rounded=0;shadow=0;glass=0;sketch=0;" vertex="1" parent="WIyWlLk6GJQsqaUBKTNV-1">
          <mxGeometry x="130" y="540" width="80" height="55" as="geometry" />
        </mxCell>
        <mxCell id="vepCg21nnmC4S3ZTDHTt-22" style="edgeStyle=orthogonalEdgeStyle;rounded=0;sketch=0;orthogonalLoop=1;jettySize=auto;html=1;exitX=0;exitY=0.5;exitDx=0;exitDy=0;entryX=0.5;entryY=1;entryDx=0;entryDy=0;" edge="1" parent="WIyWlLk6GJQsqaUBKTNV-1" source="vepCg21nnmC4S3ZTDHTt-28" target="vepCg21nnmC4S3ZTDHTt-19">
          <mxGeometry relative="1" as="geometry">
            <mxPoint x="370" y="710" as="sourcePoint" />
          </mxGeometry>
        </mxCell>
        <mxCell id="vepCg21nnmC4S3ZTDHTt-20" style="edgeStyle=orthogonalEdgeStyle;rounded=0;sketch=0;orthogonalLoop=1;jettySize=auto;html=1;exitX=0;exitY=0.5;exitDx=0;exitDy=0;entryX=0.5;entryY=1;entryDx=0;entryDy=0;" edge="1" parent="WIyWlLk6GJQsqaUBKTNV-1" source="vepCg21nnmC4S3ZTDHTt-19" target="vepCg21nnmC4S3ZTDHTt-5">
          <mxGeometry relative="1" as="geometry" />
        </mxCell>
        <mxCell id="vepCg21nnmC4S3ZTDHTt-19" value="i++" style="rounded=0;whiteSpace=wrap;html=1;shadow=0;glass=0;sketch=0;" vertex="1" parent="WIyWlLk6GJQsqaUBKTNV-1">
          <mxGeometry x="272.5" y="600" width="55" height="35" as="geometry" />
        </mxCell>
        <mxCell id="vepCg21nnmC4S3ZTDHTt-25" value="yes" style="text;html=1;align=center;verticalAlign=middle;resizable=0;points=[];autosize=1;strokeColor=none;fillColor=none;" vertex="1" parent="WIyWlLk6GJQsqaUBKTNV-1">
          <mxGeometry x="397" y="621" width="40" height="30" as="geometry" />
        </mxCell>
        <mxCell id="vepCg21nnmC4S3ZTDHTt-26" value="no" style="text;html=1;align=center;verticalAlign=middle;resizable=0;points=[];autosize=1;strokeColor=none;fillColor=none;" vertex="1" parent="WIyWlLk6GJQsqaUBKTNV-1">
          <mxGeometry x="510" y="565" width="40" height="30" as="geometry" />
        </mxCell>
        <mxCell id="vepCg21nnmC4S3ZTDHTt-28" value="return max" style="shape=parallelogram;perimeter=parallelogramPerimeter;whiteSpace=wrap;html=1;fixedSize=1;rounded=0;shadow=0;glass=0;sketch=0;" vertex="1" parent="WIyWlLk6GJQsqaUBKTNV-1">
          <mxGeometry x="370" y="680" width="120" height="60" as="geometry" />
        </mxCell>
        <mxCell id="vepCg21nnmC4S3ZTDHTt-29" value="&amp;nbsp;max = ara[i]" style="rounded=0;whiteSpace=wrap;html=1;shadow=0;glass=0;sketch=0;" vertex="1" parent="WIyWlLk6GJQsqaUBKTNV-1">
          <mxGeometry x="570" y="570" width="120" height="60" as="geometry" />
        </mxCell>
      </root>
    </mxGraphModel>
  </diagram>
</mxfile>
